<?xml version="1.0" standalone="no"?>
<!DOCTYPE svg PUBLIC "-//W3C//DTD SVG 20010904//EN"
 "http://www.w3.org/TR/2001/REC-SVG-20010904/DTD/svg10.dtd">
<svg version="1.0" xmlns="http://www.w3.org/2000/svg"
 width="512.000000pt" height="512.000000pt" viewBox="0 0 512.000000 512.000000"
 preserveAspectRatio="xMidYMid meet">
<metadata>
Created by potrace 1.11, written by Peter Selinger 2001-2013
</metadata>
<g transform="translate(0.000000,512.000000) scale(0.100000,-0.100000)"
fill="#000000" stroke="none">
<path d="M0 2560 l0 -2560 2560 0 2560 0 0 2560 0 2560 -2560 0 -2560 0 0
-2560z m2965 1526 c18 -8 38 -23 44 -34 7 -14 11 -163 11 -455 l0 -435 -172
-4 c-95 -3 -181 -8 -191 -13 -17 -7 -17 14 -15 443 3 434 4 451 23 472 11 12
29 26 40 31 35 14 222 10 260 -5z m-533 -204 l23 -23 0 -514 0 -514 -23 -23
c-21 -22 -30 -23 -162 -23 -132 0 -141 1 -162 23 l-23 23 -2 502 c-2 390 0
508 10 527 22 43 51 51 189 48 117 -3 129 -5 150 -26z m1117 2 l31 -26 0 -368
0 -368 -47 15 c-27 8 -110 17 -185 20 l-138 6 0 348 0 347 31 26 c29 25 36 26
154 26 118 0 125 -1 154 -26z m-1697 -175 c45 -24 48 -54 48 -457 0 -252 -4
-390 -11 -411 -18 -50 -51 -61 -189 -61 -121 0 -122 0 -151 29 l-29 29 0 412
0 412 29 29 c29 29 29 29 156 29 71 0 135 -5 147 -11z m1701 -772 c75 -38 146
-108 183 -182 l29 -60 3 -336 c3 -375 -1 -417 -61 -538 -25 -51 -62 -97 -169
-207 l-138 -140 -2 -190 -3 -189 -750 0 -750 0 -3 190 -2 189 -109 111 c-116
117 -161 181 -204 285 -49 117 -57 181 -57 470 l0 265 162 -3 c172 -4 219 3
272 41 l29 20 51 -29 c50 -28 55 -29 217 -32 135 -3 173 -1 204 12 21 9 39 15
40 14 1 -2 10 -17 18 -34 25 -49 98 -116 155 -143 l51 -24 -74 -80 c-41 -43
-113 -134 -160 -200 -102 -144 -104 -156 -30 -204 78 -52 83 -49 174 85 137
201 210 276 318 328 53 25 165 53 210 54 32 0 53 37 53 95 0 81 3 79 -187 86
-146 5 -174 9 -215 28 -53 26 -121 94 -141 143 -35 83 -26 170 20 197 12 7
140 10 413 8 l395 -2 58 -28z"/>
</g>
</svg>
